<svg xmlns="http://www.w3.org/2000/svg" xmlns:xlink="http://www.w3.org/1999/xlink" width="455pt" height="333pt" viewBox="0.00 0.00 455.09 332.80" style="width: 100%; height: auto;">
<g id="graph0" class="graph" transform="scale(1 1) rotate(0) translate(4 328.8)">
<polygon fill="white" stroke="transparent" points="-4,4 -4,-328.8 451.09,-328.8 451.09,4 -4,4"></polygon>
<!-- Special
Use
Patterns -->
<g id="node1" class="node">
<title>Special
Use
Patterns</title>
<text text-anchor="middle" x="147.21" y="-222.2" font-family="Times,serif" font-size="14.00">Special</text>
<text text-anchor="middle" x="147.21" y="-205.4" font-family="Times,serif" font-size="14.00">Use</text>
<text text-anchor="middle" x="147.21" y="-188.6" font-family="Times,serif" font-size="14.00">Patterns</text>
</g>
<!-- School
Campus -->
<g id="node2" class="node">
<title>School
Campus</title>
<polygon fill="lightblue" stroke="black" points="136.1,-127.4 74.33,-127.4 74.33,-86.2 136.1,-86.2 136.1,-127.4"></polygon>
<text text-anchor="middle" x="105.21" y="-111" font-family="Times,serif" font-size="14.00">School</text>
<text text-anchor="middle" x="105.21" y="-94.2" font-family="Times,serif" font-size="14.00">Campus</text>
</g>
<!-- Special
Use
Patterns&#45;&gt;School
Campus -->
<g id="edge1" class="edge">
<title>Special
Use
Patterns-&gt;School
Campus</title>
<path fill="none" stroke="black" d="M135.4,-180.25C129.78,-166.76 123.06,-150.64 117.39,-137.03"></path>
<polygon fill="black" stroke="black" points="120.56,-135.52 113.48,-127.64 114.09,-138.22 120.56,-135.52"></polygon>
</g>
<!-- Market
Center -->
<g id="node3" class="node">
<title>Market
Center</title>
<polygon fill="lightblue" stroke="black" points="56.64,-127.4 -0.21,-127.4 -0.21,-86.2 56.64,-86.2 56.64,-127.4"></polygon>
<text text-anchor="middle" x="28.21" y="-111" font-family="Times,serif" font-size="14.00">Market</text>
<text text-anchor="middle" x="28.21" y="-94.2" font-family="Times,serif" font-size="14.00">Center</text>
</g>
<!-- Special
Use
Patterns&#45;&gt;Market
Center -->
<g id="edge2" class="edge">
<title>Special
Use
Patterns-&gt;Market
Center</title>
<path fill="none" stroke="black" d="M116.36,-180.05C113.29,-177.3 110.21,-174.58 107.21,-172 92.45,-159.26 75.73,-145.58 61.49,-134.13"></path>
<polygon fill="black" stroke="black" points="63.42,-131.19 53.43,-127.67 59.05,-136.65 63.42,-131.19"></polygon>
</g>
<!-- Industrial
Area -->
<g id="node4" class="node">
<title>Industrial
Area</title>
<polygon fill="lightblue" stroke="black" points="383.87,-127.4 314.56,-127.4 314.56,-86.2 383.87,-86.2 383.87,-127.4"></polygon>
<text text-anchor="middle" x="349.21" y="-111" font-family="Times,serif" font-size="14.00">Industrial</text>
<text text-anchor="middle" x="349.21" y="-94.2" font-family="Times,serif" font-size="14.00">Area</text>
</g>
<!-- Special
Use
Patterns&#45;&gt;Industrial
Area -->
<g id="edge3" class="edge">
<title>Special
Use
Patterns-&gt;Industrial
Area</title>
<path fill="none" stroke="black" d="M174.52,-180.15C178.25,-177.13 182.19,-174.32 186.21,-172 234.06,-144.37 255.03,-159.13 305.21,-136 307.52,-134.94 309.85,-133.77 312.17,-132.53"></path>
<polygon fill="black" stroke="black" points="314.04,-135.49 320.99,-127.49 310.57,-129.41 314.04,-135.49"></polygon>
</g>
<!-- Hospital -->
<g id="node5" class="node">
<title>Hospital</title>
<polygon fill="lightblue" stroke="black" points="296.15,-124.8 232.27,-124.8 232.27,-88.8 296.15,-88.8 296.15,-124.8"></polygon>
<text text-anchor="middle" x="264.21" y="-102.6" font-family="Times,serif" font-size="14.00">Hospital</text>
</g>
<!-- Special
Use
Patterns&#45;&gt;Hospital -->
<g id="edge4" class="edge">
<title>Special
Use
Patterns-&gt;Hospital</title>
<path fill="none" stroke="black" d="M177.27,-180.03C180.27,-177.29 183.28,-174.57 186.21,-172 201.99,-158.13 220.09,-143.18 234.87,-131.2"></path>
<polygon fill="black" stroke="black" points="237.13,-133.88 242.71,-124.87 232.73,-128.43 237.13,-133.88"></polygon>
</g>
<!-- Walkable
Streetscape -->
<g id="node8" class="node">
<title>Walkable
Streetscape</title>
<polygon fill="white" stroke="black" points="263.95,-41.4 184.47,-41.4 184.47,-0.2 263.95,-0.2 263.95,-41.4"></polygon>
<text text-anchor="middle" x="224.21" y="-25" font-family="Times,serif" font-size="14.00">Walkable</text>
<text text-anchor="middle" x="224.21" y="-8.2" font-family="Times,serif" font-size="14.00">Streetscape</text>
</g>
<!-- Market
Center&#45;&gt;Walkable
Streetscape -->
<g id="edge8" class="edge">
<title>Market
Center-&gt;Walkable
Streetscape</title>
<path fill="none" stroke="black" d="M51.75,-86.15C56.07,-83.04 60.66,-80.05 65.21,-77.6 99.99,-58.86 142.31,-44.36 174.55,-34.85"></path>
<polygon fill="black" stroke="black" points="175.58,-38.19 184.21,-32.06 173.63,-31.47 175.58,-38.19"></polygon>
</g>
<!-- Place
Network -->
<g id="node9" class="node">
<title>Place
Network</title>
<polygon fill="white" stroke="black" points="133.69,-41.4 68.73,-41.4 68.73,-0.2 133.69,-0.2 133.69,-41.4"></polygon>
<text text-anchor="middle" x="101.21" y="-25" font-family="Times,serif" font-size="14.00">Place</text>
<text text-anchor="middle" x="101.21" y="-8.2" font-family="Times,serif" font-size="14.00">Network</text>
</g>
<!-- Market
Center&#45;&gt;Place
Network -->
<g id="edge9" class="edge">
<title>Market
Center-&gt;Place
Network</title>
<path fill="none" stroke="black" d="M45.51,-85.89C55.06,-74.91 67.05,-61.11 77.47,-49.13"></path>
<polygon fill="black" stroke="black" points="80.12,-51.41 84.04,-41.56 74.84,-46.82 80.12,-51.41"></polygon>
</g>
<!-- Industrial
Area&#45;&gt;Walkable
Streetscape -->
<g id="edge14" class="edge">
<title>Industrial
Area-&gt;Walkable
Streetscape</title>
<path fill="none" stroke="black" d="M319.91,-86.11C302.71,-74.55 280.8,-59.83 262.28,-47.38"></path>
<polygon fill="black" stroke="black" points="264.02,-44.33 253.77,-41.66 260.12,-50.14 264.02,-44.33"></polygon>
</g>
<!-- Hospital&#45;&gt;Walkable
Streetscape -->
<g id="edge20" class="edge">
<title>Hospital-&gt;Walkable
Streetscape</title>
<path fill="none" stroke="black" d="M255.92,-88.4C250.75,-77.52 243.95,-63.25 237.98,-50.71"></path>
<polygon fill="black" stroke="black" points="241.07,-49.06 233.61,-41.54 234.75,-52.07 241.07,-49.06"></polygon>
</g>
<!-- Pedestrian
Sanctuary -->
<g id="node6" class="node">
<title>Pedestrian
Sanctuary</title>
<polygon fill="white" stroke="black" points="98.53,-230.2 23.9,-230.2 23.9,-189 98.53,-189 98.53,-230.2"></polygon>
<text text-anchor="middle" x="61.21" y="-213.8" font-family="Times,serif" font-size="14.00">Pedestrian</text>
<text text-anchor="middle" x="61.21" y="-197" font-family="Times,serif" font-size="14.00">Sanctuary</text>
</g>
<!-- Pedestrian
Sanctuary&#45;&gt;School
Campus -->
<g id="edge5" class="edge">
<title>Pedestrian
Sanctuary-&gt;School
Campus</title>
<path fill="none" stroke="black" d="M69.91,-188.69C76.35,-173.91 85.25,-153.54 92.49,-136.94"></path>
<polygon fill="black" stroke="black" points="95.74,-138.24 96.54,-127.67 89.33,-135.44 95.74,-138.24"></polygon>
</g>
<!-- Pedestrian
Sanctuary&#45;&gt;Market
Center -->
<g id="edge7" class="edge">
<title>Pedestrian
Sanctuary-&gt;Market
Center</title>
<path fill="none" stroke="black" d="M54.69,-188.69C49.9,-174.05 43.31,-153.92 37.91,-137.41"></path>
<polygon fill="black" stroke="black" points="41.16,-136.09 34.72,-127.67 34.5,-138.27 41.16,-136.09"></polygon>
</g>
<!-- Pedestrian
Sanctuary&#45;&gt;Hospital -->
<g id="edge15" class="edge">
<title>Pedestrian
Sanctuary-&gt;Hospital</title>
<path fill="none" stroke="black" d="M82.5,-188.94C89.91,-182.86 98.55,-176.57 107.21,-172 155.34,-146.62 175.37,-159.97 224.21,-136 227.54,-134.37 230.89,-132.48 234.16,-130.46"></path>
<polygon fill="black" stroke="black" points="236.14,-133.34 242.56,-124.92 232.29,-127.5 236.14,-133.34"></polygon>
</g>
<!-- Neighborhood
Patterns -->
<g id="node7" class="node">
<title>Neighborhood
Patterns</title>
<polygon fill="bisque" stroke="black" points="109.58,-324.6 12.84,-324.6 12.84,-283.4 109.58,-283.4 109.58,-324.6"></polygon>
<text text-anchor="middle" x="61.21" y="-308.2" font-family="Times,serif" font-size="14.00">Neighborhood</text>
<text text-anchor="middle" x="61.21" y="-291.4" font-family="Times,serif" font-size="14.00">Patterns</text>
</g>
<!-- Neighborhood
Patterns&#45;&gt;Pedestrian
Sanctuary -->
<g id="edge6" class="edge">
<title>Neighborhood
Patterns-&gt;Pedestrian
Sanctuary</title>
<path fill="none" stroke="black" d="M61.21,-282.95C61.21,-270.52 61.21,-254.31 61.21,-240.39"></path>
<polygon fill="black" stroke="black" points="64.71,-240.29 61.21,-230.29 57.71,-240.29 64.71,-240.29"></polygon>
</g>
<!-- Public
Space
Patterns -->
<g id="node10" class="node">
<title>Public
Space
Patterns</title>
<polygon fill="bisque" stroke="black" points="214.81,-136.2 153.61,-136.2 153.61,-77.4 214.81,-77.4 214.81,-136.2"></polygon>
<text text-anchor="middle" x="184.21" y="-119.4" font-family="Times,serif" font-size="14.00">Public</text>
<text text-anchor="middle" x="184.21" y="-102.6" font-family="Times,serif" font-size="14.00">Space</text>
<text text-anchor="middle" x="184.21" y="-85.8" font-family="Times,serif" font-size="14.00">Patterns</text>
</g>
<!-- Public
Space
Patterns&#45;&gt;Walkable
Streetscape -->
<g id="edge10" class="edge">
<title>Public
Space
Patterns-&gt;Walkable
Streetscape</title>
<path fill="none" stroke="black" d="M197.75,-77.36C201.84,-68.79 206.32,-59.36 210.42,-50.75"></path>
<polygon fill="black" stroke="black" points="213.71,-52 214.85,-41.47 207.39,-48.99 213.71,-52"></polygon>
</g>
<!-- Public
Space
Patterns&#45;&gt;Place
Network -->
<g id="edge11" class="edge">
<title>Public
Space
Patterns-&gt;Place
Network</title>
<path fill="none" stroke="black" d="M156.11,-77.36C147,-68.14 136.92,-57.94 127.92,-48.83"></path>
<polygon fill="black" stroke="black" points="130.16,-46.12 120.65,-41.47 125.19,-51.04 130.16,-46.12"></polygon>
</g>
<!-- Polycentric
Region -->
<g id="node11" class="node">
<title>Polycentric
Region</title>
<polygon fill="white" stroke="black" points="446.97,-230.2 367.45,-230.2 367.45,-189 446.97,-189 446.97,-230.2"></polygon>
<text text-anchor="middle" x="407.21" y="-213.8" font-family="Times,serif" font-size="14.00">Polycentric</text>
<text text-anchor="middle" x="407.21" y="-197" font-family="Times,serif" font-size="14.00">Region</text>
</g>
<!-- Polycentric
Region&#45;&gt;Industrial
Area -->
<g id="edge12" class="edge">
<title>Polycentric
Region-&gt;Industrial
Area</title>
<path fill="none" stroke="black" d="M395.75,-188.69C387.17,-173.77 375.31,-153.16 365.71,-136.48"></path>
<polygon fill="black" stroke="black" points="368.67,-134.6 360.65,-127.67 362.6,-138.09 368.67,-134.6"></polygon>
</g>
<!-- Regional
Patterns -->
<g id="node12" class="node">
<title>Regional
Patterns</title>
<polygon fill="bisque" stroke="black" points="395.26,-324.6 329.16,-324.6 329.16,-283.4 395.26,-283.4 395.26,-324.6"></polygon>
<text text-anchor="middle" x="362.21" y="-308.2" font-family="Times,serif" font-size="14.00">Regional</text>
<text text-anchor="middle" x="362.21" y="-291.4" font-family="Times,serif" font-size="14.00">Patterns</text>
</g>
<!-- Regional
Patterns&#45;&gt;Polycentric
Region -->
<g id="edge13" class="edge">
<title>Regional
Patterns-&gt;Polycentric
Region</title>
<path fill="none" stroke="black" d="M371.98,-282.95C378.15,-270.27 386.23,-253.67 393.1,-239.58"></path>
<polygon fill="black" stroke="black" points="396.39,-240.82 397.62,-230.29 390.1,-237.75 396.39,-240.82"></polygon>
</g>
<!-- 400M
Through
Street
Network -->
<g id="node13" class="node">
<title>400M
Through
Street
Network</title>
<polygon fill="white" stroke="black" points="349.69,-247.3 284.73,-247.3 284.73,-171.9 349.69,-171.9 349.69,-247.3"></polygon>
<text text-anchor="middle" x="317.21" y="-230.6" font-family="Times,serif" font-size="14.00">400M</text>
<text text-anchor="middle" x="317.21" y="-213.8" font-family="Times,serif" font-size="14.00">Through</text>
<text text-anchor="middle" x="317.21" y="-197" font-family="Times,serif" font-size="14.00">Street</text>
<text text-anchor="middle" x="317.21" y="-180.2" font-family="Times,serif" font-size="14.00">Network</text>
</g>
<!-- Regional
Patterns&#45;&gt;400M
Through
Street
Network -->
<g id="edge18" class="edge">
<title>Regional
Patterns-&gt;400M
Through
Street
Network</title>
<path fill="none" stroke="black" d="M352.45,-282.95C348.65,-275.15 344.13,-265.86 339.61,-256.59"></path>
<polygon fill="black" stroke="black" points="342.65,-254.83 335.12,-247.37 336.35,-257.89 342.65,-254.83"></polygon>
</g>
<!-- 400M
Through
Street
Network&#45;&gt;Hospital -->
<g id="edge16" class="edge">
<title>400M
Through
Street
Network-&gt;Hospital</title>
<path fill="none" stroke="black" d="M297.93,-171.92C291.32,-159.35 284.05,-145.53 277.97,-133.96"></path>
<polygon fill="black" stroke="black" points="280.92,-132.06 273.17,-124.84 274.73,-135.32 280.92,-132.06"></polygon>
</g>
<!-- Biophilic
Urbanism -->
<g id="node14" class="node">
<title>Biophilic
Urbanism</title>
<polygon fill="white" stroke="black" points="266.92,-230.2 195.5,-230.2 195.5,-189 266.92,-189 266.92,-230.2"></polygon>
<text text-anchor="middle" x="231.21" y="-213.8" font-family="Times,serif" font-size="14.00">Biophilic</text>
<text text-anchor="middle" x="231.21" y="-197" font-family="Times,serif" font-size="14.00">Urbanism</text>
</g>
<!-- Biophilic
Urbanism&#45;&gt;Hospital -->
<g id="edge17" class="edge">
<title>Biophilic
Urbanism-&gt;Hospital</title>
<path fill="none" stroke="black" d="M237.73,-188.69C242.77,-173.29 249.8,-151.82 255.35,-134.87"></path>
<polygon fill="black" stroke="black" points="258.8,-135.58 258.59,-124.99 252.15,-133.4 258.8,-135.58"></polygon>
</g>
<!-- Urban
Patterns -->
<g id="node15" class="node">
<title>Urban
Patterns</title>
<polygon fill="bisque" stroke="black" points="261.81,-324.6 200.61,-324.6 200.61,-283.4 261.81,-283.4 261.81,-324.6"></polygon>
<text text-anchor="middle" x="231.21" y="-308.2" font-family="Times,serif" font-size="14.00">Urban</text>
<text text-anchor="middle" x="231.21" y="-291.4" font-family="Times,serif" font-size="14.00">Patterns</text>
</g>
<!-- Urban
Patterns&#45;&gt;Biophilic
Urbanism -->
<g id="edge19" class="edge">
<title>Urban
Patterns-&gt;Biophilic
Urbanism</title>
<path fill="none" stroke="black" d="M231.21,-282.95C231.21,-270.52 231.21,-254.31 231.21,-240.39"></path>
<polygon fill="black" stroke="black" points="234.71,-240.29 231.21,-230.29 227.71,-240.29 234.71,-240.29"></polygon>
</g>
</g>
</svg>